{"title":"TV.Dober.Dan.S01-S06.WEBRip.x264-BALTAZAR","uid":10854381,"size":41095523735,"categoryP":"video","categoryS":"tv_shows","magnet":"?xt=urn:btih:c09eea27ca428642c5912a28f75c3ec13c13b895&amp;dn=TV.Dober.Dan.S01-S06.WEBRip.x264-BALTAZAR&amp;tr=udp%3A%2F%2Ftracker.openbittorrent.com%3A80&amp;tr=udp%3A%2F%2Fopen.demonii.com%3A1337&amp;tr=udp%3A%2F%2Ftracker.coppersurfer.tk%3A6969&amp;tr=udp%3A%2F%2Fexodus.desync.com%3A6969","seeders":1,"leechers":0,"uploader":null,"files":81,"time":1408829785,"description":"TV.Dober.Dan.S01E01.TV.Dober.Dan.WEBRip.x264-baltazar.mp4\n\nFormat                                   : MPEG-4\nFormat profile                           : Base Media\nCodec ID                                 : isom\nFile size                                : 418 MiB\nDuration                                 : 38mn 58s\nOverall bit rate mode                    : Variable\nOverall bit rate                         : 1 500 Kbps\nEncoded date                             : UTC 2013-09-06 22:17:50\nTagged date                              : UTC 2013-09-06 22:17:50\nWriting application                      : Yamb 2.1.0.0 [http://yamb.unite-video.com]\n\nVideo\nID                                       : 2\nFormat                                   : AVC\nFormat/Info                              : Advanced Video Codec\nFormat profile                           : &lt;a class=&quot;__cf_email__&quot; href=&quot;/cdn-cgi/l/email-protection&quot; data-cfemail=&quot;bef3dfd7d0fef28d908f&quot;&gt;[email&amp;#160;protected]&lt;/a&gt;&lt;script cf-hash='f9e31' type=&quot;text/javascript&quot;&gt;\n/* &lt;![CDATA[ */!function(){try{var t=&quot;currentScript&quot;in document?document.currentScript:function(){for(var t=document.getElementsByTagName(&quot;script&quot;),e=t.length;e--;)if(t[e].getAttribute(&quot;cf-hash&quot;))return t[e]}();if(t&amp;&amp;t.previousSibling){var e,r,n,i,c=t.previousSibling,a=c.getAttribute(&quot;data-cfemail&quot;);if(a){for(e=&quot;&quot;,r=parseInt(a.substr(0,2),16),n=2;a.length-n;n+=2)i=parseInt(a.substr(n,2),16)^r,e+=String.fromCharCode(i);e=document.createTextNode(e),c.parentNode.replaceChild(e,c)}}}catch(u){}}();/* ]]&gt; */&lt;/script&gt;\nFormat settings, CABAC                   : Yes\nFormat settings, ReFrames                : 4 frames\nCodec ID                                 : avc1\nCodec ID/Info                            : Advanced Video Coding\nDuration                                 : 38mn 58s\nBit rate                                 : 1 400 Kbps\nMaximum bit rate                         : 2 598 Kbps\nWidth                                    : 720 pixels\nHeight                                   : 544 pixels\nDisplay aspect ratio                     : 4:3\nFrame rate mode                          : Constant\nFrame rate                               : 25.000 fps\nColor space                              : YUV\nChroma subsampling                       : 4:2:0\nBit depth                                : 8 bits\nScan type                                : Progressive\nBits/(Pixel*Frame)                       : 0.143\nStream size                              : 386 MiB (92%)\nWriting library                          : x264 core 120\nEncoding settings                        : cabac=1 / ref=3 / deblock=1:0:0 / analyse=0x1:0x111 / me=hex / subme=7 / psy=1 / psy_rd=1.00:0.00 / mixed_ref=1 / me_range=16 / chroma_me=1 / trellis=1 / 8x8dct=0 / cqm=0 / deadzone=21,11 / fast_pskip=1 / chroma_qp_offset=-2 / threads=24 / sliced_threads=0 / nr=0 / decimate=1 / interlaced=0 / bluray_compat=0 / constrained_intra=0 / bframes=3 / b_pyramid=2 / b_adapt=2 / b_bias=0 / direct=1 / weightb=1 / open_gop=0 / weightp=2 / keyint=75 / keyint_min=38 / scenecut=0 / intra_refresh=0 / rc_lookahead=50 / rc=abr / mbtree=1 / bitrate=1400 / ratetol=1.0 / qcomp=0.60 / qpmin=3 / qpmax=69 / qpstep=4 / vbv_maxrate=1512 / vbv_bufsize=1512 / nal_hrd=none / ip_ratio=1.40 / aq=1:1.00\nEncoded date                             : UTC 2013-09-06 22:17:54\nTagged date                              : UTC 2013-09-06 22:18:10\nColor primaries                          : BT.601 NTSC\nTransfer characteristics                 : BT.709\nMatrix coefficients                      : BT.601\n\nAudio\nID                                       : 1\nFormat                                   : AAC\nFormat/Info                              : Advanced Audio Codec\nFormat profile                           : LC\nCodec ID                                 : 40\nDuration                                 : 38mn 58s\nBit rate mode                            : Variable\nBit rate                                 : 112 Kbps\nMaximum bit rate                         : 132 Kbps\nChannel(s)                               : 2 channels\nChannel positions                        : Front: L R\nSampling rate                            : 48.0 KHz\nCompression mode                         : Lossy\nStream size                              : 31.2 MiB (7%)\nEncoded date                             : UTC 2013-09-06 22:17:50\nTagged date                              : UTC 2013-09-06 22:18:10\n\n &lt;a href=&quot;\nhttp://sl.wikipedia.org/wiki/TV_dober_dan&quot; rel=&quot;nofollow&quot; target=&quot;_NEW&quot;&gt;\nhttp://sl.wikipedia.org/wiki/TV_dober_dan&lt;/a&gt;","torrent":{"xt":"urn:btih:c09eea27ca428642c5912a28f75c3ec13c13b895","amp;dn":"TV.Dober.Dan.S01-S06.WEBRip.x264-BALTAZAR","amp;tr":["udp%3A%2F%2Ftracker.openbittorrent.com%3A80","udp%3A%2F%2Fopen.demonii.com%3A1337","udp%3A%2F%2Ftracker.coppersurfer.tk%3A6969","udp%3A%2F%2Fexodus.desync.com%3A6969"],"infoHash":"c09eea27ca428642c5912a28f75c3ec13c13b895","infoHashBuffer":{"type":"Buffer","data":[192,158,234,39,202,66,134,66,197,145,42,40,247,92,62,193,60,19,184,149]},"announce":[],"urlList":[]}}